<svg xmlns="http://www.w3.org/2000/svg" xmlns:xlink="http://www.w3.org/1999/xlink" width="36" height="36" viewBox="0 0 36 36">
    <defs>
        <circle id="a" cx="18" cy="18" r="18"/>
    </defs>
    <g fill="none" fill-rule="evenodd">
        <mask id="b" fill="#fff">
            <use xlink:href="#a"/>
        </mask>
        <path fill="#000" fill-opacity=".15" d="M0 0h36v36H0z" mask="url(#b)"/>
        <path fill="#FFF" d="M21.289 23.083c0-1.636 1.266-1.102 1.822-4.099.23-1.243 1.349-.02 1.563-2.858 0-1.131-.61-1.412-.61-1.412s.31-1.674.431-2.962C24.645 10.147 23.567 6 17.811 6c-5.755 0-6.834 4.147-6.683 5.752.121 1.288.431 2.962.431 2.962s-.61.28-.61 1.412c.214 2.838 1.332 1.615 1.563 2.858.556 2.997 1.822 2.463 1.822 4.1 0 2.725-1.325 3.998-5.472 5.508C4.702 30.106 2 31.649 2 32.702v5.537H33.623v-5.537c0-1.053-2.702-2.596-6.862-4.11-4.147-1.51-5.472-2.783-5.472-5.509z" mask="url(#b)" opacity=".7"/>
    </g>
</svg>
