<svg xmlns="http://www.w3.org/2000/svg" width="24" height="24" viewBox="0 0 24 24">
    <g fill="none" fill-rule="evenodd">
        <path stroke="#FFF" d="M19.478 18.196c-.69-.968-1.172-2.444-1.5-4.311-.336-1.916-.601-6.111-.478-5.241.019-2.654-2.385-4.921-5.5-5.144h-.977c-3.07.141-5.542 2.457-5.528 5.214.128-.935-.136 3.255-.473 5.171-.328 1.867-.81 3.343-1.5 4.311a.441.441 0 0 0 .42.304h15.117a.441.441 0 0 0 .42-.304z"/>
        <path fill="#FFF" d="M11.5 21c.92 0 1.754-.667 2.5-2H9c.746 1.333 1.58 2 2.5 2z"/>
        <path d="M0 0h24v24H0z"/>
    </g>
</svg>
