<svg xmlns="http://www.w3.org/2000/svg" width="24" height="24" viewBox="0 0 24 24">
    <g fill="none" fill-rule="evenodd">
        <path d="M0 0h24v24H0z"/>
        <rect width="8" height="8" x="2.5" y="13.5" stroke="#FFF" rx="2"/>
        <rect width="8" height="8" x="13.5" y="13.5" stroke="#FFF" rx="2"/>
        <rect width="8" height="8" x="13.5" y="2.5" stroke="#FFF" rx="2"/>
        <path fill="#FFF" fill-rule="nonzero" d="M6.502 10.004a3.502 3.502 0 1 1 0-7.004 3.502 3.502 0 0 1 0 7.004zM6.5 8a1.5 1.5 0 1 0 0-3 1.5 1.5 0 0 0 0 3z"/>
        <path fill="#FFF" fill-rule="nonzero" d="M7.565 4h-2.14l.16-1.907a4.52 4.52 0 0 1 1.82-.002L7.565 4zM9.128 5.778L7.78 4.116l1.582-1.077a4.52 4.52 0 0 1 1.148 1.414L9.128 5.778zM8.692 8.096l.482-2.085 1.822.585a4.52 4.52 0 0 1-.408 1.774l-1.896-.274zM6.614 9.224l1.923-.938.693 1.783a4.52 4.52 0 0 1-1.636.8l-.98-1.645zM4.453 8.286l1.923.938-.979 1.644a4.52 4.52 0 0 1-1.637-.797l.693-1.785zM3.817 6.011l.48 2.085-1.893.274a4.52 4.52 0 0 1-.411-1.774l1.824-.585zM5.21 4.116L3.862 5.778 2.48 4.455a4.52 4.52 0 0 1 1.144-1.417L5.21 4.116z"/>
    </g>
</svg>
