<svg xmlns="http://www.w3.org/2000/svg" width="24" height="24" viewBox="0 0 24 24">
    <g fill="none" fill-rule="evenodd">
        <path d="M0 0h24v24H0z"/>
        <path fill="#FFF" d="M12.003 17h-.037c-.576-.018-.982-.448-.966-1.024.016-.566.433-.976.989-.976h.034c.591.018.993.445.977 1.037-.017.567-.427.963-.997.963zm2.865-5.705c-.168.24-.541.54-1.01.904l-.517.357c-.283.22-.454.428-.518.632-.05.16-.075.203-.08.53l-.001.083H10.77l.005-.167c.025-.686.042-1.09.326-1.423.446-.523 1.43-1.157 1.472-1.184.14-.106.26-.227.348-.356.207-.286.299-.51.299-.73 0-.307-.092-.59-.271-.843-.173-.244-.5-.367-.976-.367-.47 0-.793.15-.986.457a1.83 1.83 0 0 0-.299.983v.085H8.655l.004-.088c.053-1.245.497-2.142 1.32-2.666C10.497 7.17 11.141 7 11.893 7c.983 0 1.814.239 2.467.71.663.479.999 1.194.999 2.127 0 .522-.165 1.013-.49 1.458z"/>
        <path stroke="#FFF" d="M12.007 3.5c-4.78.062-8.569 3.885-8.507 8.493.062 4.778 3.885 8.569 8.493 8.507 4.778-.064 8.569-3.886 8.507-8.493-.064-4.78-3.886-8.57-8.493-8.507z"/>
    </g>
</svg>
