<svg xmlns="http://www.w3.org/2000/svg" width="15" height="15" viewBox="0 0 15 15">
    <g fill="none" fill-rule="evenodd">
        <circle cx="7.5" cy="7.5" r="7" fill="#ECF8FF" stroke="#7EAFCC"/>
        <path fill="#186999" fill-rule="nonzero" d="M8.003 9.08c0-.227.02-.42.061-.578.042-.159.1-.296.176-.413.076-.117.164-.223.266-.318.1-.095.211-.193.332-.294l.303-.27c.101-.092.191-.196.27-.313.08-.117.143-.257.19-.418.048-.161.071-.352.071-.574 0-.303-.053-.575-.16-.816-.108-.24-.255-.44-.442-.602-.187-.161-.405-.285-.655-.37-.25-.085-.52-.128-.81-.128-.348 0-.663.055-.945.166-.281.11-.521.267-.72.47-.2.202-.352.445-.456.73-.104.285-.156.6-.156.949h1.081c0-.43.093-.773.28-1.03.186-.256.476-.384.868-.384.082 0 .177.02.285.057.107.038.208.098.303.18.095.083.176.192.242.328s.1.299.1.488c0 .158-.021.294-.062.408-.041.114-.098.217-.17.308-.074.092-.156.176-.247.252-.092.076-.189.158-.29.246-.126.108-.235.217-.327.328-.092.11-.17.239-.233.384-.063.145-.109.315-.137.507-.029.193-.043.429-.043.707h1.025zm.133 2.423v-1.186H6.864v1.186h1.272z"/>
    </g>
</svg>
