<svg xmlns="http://www.w3.org/2000/svg" width="48" height="48" viewBox="0 0 48 48">
    <g fill="none" fill-rule="evenodd">
        <g transform="translate(10 10)">
            <path stroke="#1F75A8" stroke-width="2" d="M22 27V2a1 1 0 0 0-1-1H2a1 1 0 0 0-1 1v22a3 3 0 0 0 3 3h18zM23 6a1 1 0 0 0-1 1v18a2 2 0 0 0 2 2h1a3 3 0 0 0 3-3V7a1 1 0 0 0-1-1h-4z"/>
            <rect width="11" height="5" x="6" y="6" stroke="#1F75A8" stroke-width="2" rx="1"/>
            <path fill="#1F75A8" d="M5 14h13v2H5zM5 18h13v2H5zM5 22h13v2H5z"/>
        </g>
        <path d="M0 0h48v48H0z"/>
    </g>
</svg>
